<svg width="32" height="32" viewBox="0 0 32 32" fill="none" xmlns="http://www.w3.org/2000/svg">
<path d="M31 16H29V14C29 13.4 28.6 13 28 13H26V11C26 10.4 25.6 10 25 10H23V8H25C25.6 8 26 7.6 26 7V4C26 3.4 25.6 3 25 3H22C21.4 3 21 3.4 21 4V6H19C18.4 6 18 6.4 18 7V10H14V7C14 6.4 13.6 6 13 6H11V4C11 3.4 10.6 3 10 3H7C6.4 3 6 3.4 6 4V7C6 7.6 6.4 8 7 8H9V10H7C6.4 10 6 10.4 6 11V13H4C3.4 13 3 13.4 3 14V16H1C0.4 16 0 16.4 0 17V26C0 26.6 0.4 27 1 27H4C4.6 27 5 26.6 5 26V21H6V26C6 26.6 6.4 27 7 27H9V29C9 29.6 9.4 30 10 30H14C14.6 30 15 29.6 15 29V26C15 25.4 14.6 25 14 25H11V24H21V25H18C17.4 25 17 25.4 17 26V29C17 29.6 17.4 30 18 30H22C22.6 30 23 29.6 23 29V27H25C25.6 27 26 26.6 26 26V21H27V26C27 26.6 27.4 27 28 27H31C31.6 27 32 26.6 32 26V17C32 16.4 31.6 16 31 16ZM14 19C14 19.6 13.6 20 13 20H10C9.4 20 9 19.6 9 19V16C9 15.4 9.4 15 10 15H13C13.6 15 14 15.4 14 16V19ZM23 19C23 19.6 22.6 20 22 20H19C18.4 20 18 19.6 18 19V16C18 15.4 18.4 15 19 15H22C22.6 15 23 15.4 23 16V19Z" fill="#200F2E"/>
</svg>
